{
	"asset":{
		"version":"2.0",
		"generator":"Maxon Cinema 4D 2023.2.2 (#200000219)"
	},
	"scenes":[{
		"nodes":[0]
	}],
	"nodes":[{
		"name":"Path",
		"mesh":0,
		"translation":[0.0,
		0.014085328206419945,
		-0.9842497110366821],
		"rotation":[1.726049858596923e-16,
		0.0,
		0.0,
		-1.0],
		"scale":[1.0,
		1.0,
		1.0]
	}],
	"meshes":[{
		"primitives":[{
			"attributes":{
				"POSITION":1,
				"NORMAL":2,
				"TEXCOORD_0":3
			},
			"indices":0
		}],
		"name":"Path"
	}],
	"accessors":[{
		"bufferView":0,
		"type":"SCALAR",
		"componentType":5123,
		"count":48348,
		"byteOffset":0,
		"min":[0],
		"max":[9572]
	},
	{
		"bufferView":1,
		"type":"VEC3",
		"componentType":5126,
		"count":9573,
		"byteOffset":0,
		"min":[-7.046779632568359,
		-0.4854162335395813,
		-1.670244812965393],
		"max":[7.046780586242676,
		0.2709917724132538,
		10.711366653442383]
	},
	{
		"bufferView":1,
		"type":"VEC3",
		"componentType":5126,
		"count":9573,
		"byteOffset":12,
		"min":[-1.0,
		-0.9999982118606567,
		-0.9998452067375183],
		"max":[0.9999921321868897,
		1.0,
		0.9999286532402039]
	},
	{
		"bufferView":1,
		"type":"VEC2",
		"componentType":5126,
		"count":9573,
		"byteOffset":24,
		"min":[0.0,
		0.0],
		"max":[1.0,
		1.0]
	}],
	"bufferViews":[{
		"buffer":0,
		"byteOffset":0,
		"byteLength":96696,
		"target":34963
	},
	{
		"buffer":0,
		"byteOffset":96696,
		"byteLength":306336,
		"target":34962,
		"byteStride":32
	}],
	"buffers":[{
		"uri":"data:application/octet-stream;base64,",
		"byteLength":403032
	}]
}